<svg width="24" height="24" viewBox="0 0 24 24" fill="none" xmlns="http://www.w3.org/2000/svg">
<path d="M9.08333 9H8C6.34314 9 5 10.3431 5 12V18C5 19.6569 6.34315 21 8 21H16C17.6569 21 19 19.6569 19 18V12C19 10.3431 17.6569 9 16 9H14.9167" stroke="black" stroke-width="2" stroke-linecap="round"/>
<path d="M10.8 2.65019C11.5111 2.11702 12.4894 2.11691 13.2004 2.65019L16.5998 5.19999C17.0415 5.53127 17.131 6.15761 16.8 6.5994C16.4687 7.04117 15.8424 7.1308 15.4006 6.7996L13.0002 4.99882V15.9998C13.0002 16.552 12.5524 16.9997 12.0002 16.9998C11.4479 16.9998 11.0002 16.5521 11.0002 15.9998V4.99882L8.5998 6.7996C8.15798 7.13083 7.53172 7.04118 7.20039 6.5994C6.86918 6.15758 6.95882 5.53131 7.40058 5.19999L10.8 2.65019Z" fill="black"/>
</svg>
