<svg width="24" height="24" viewBox="0 0 24 24" fill="none" xmlns="http://www.w3.org/2000/svg">
<path d="M14 2.05566C16.3083 2.05566 17.9999 4.10529 18 6.39941V6.51367H20C20.5522 6.51367 20.9998 6.96153 21 7.51367C21 8.06596 20.5523 8.51367 20 8.51367H18.9277L18.2266 17.8975C18.0647 20.0592 16.4111 21.8887 14.2393 21.8887H9.76074C7.58893 21.8887 5.93526 20.0592 5.77344 17.8975L5.07227 8.51367H4C3.44772 8.51367 3 8.06596 3 7.51367C3.00016 6.96153 3.44782 6.51367 4 6.51367H6V6.39941C6.00006 4.10529 7.69166 2.05566 10 2.05566H14ZM10 9.85742C9.44778 9.85742 9.00011 10.3052 9 10.8574V17.5449C9.00011 18.0971 9.44778 18.5449 10 18.5449C10.5522 18.5449 10.9999 18.0971 11 17.5449V10.8574C10.9999 10.3052 10.5522 9.85742 10 9.85742ZM14 9.85742C13.4478 9.85742 13.0001 10.3052 13 10.8574V17.5449C13.0001 18.0971 13.4478 18.5449 14 18.5449C14.5522 18.5449 14.9999 18.0971 15 17.5449V10.8574C14.9999 10.3052 14.5522 9.85742 14 9.85742ZM10 4.05566C8.99469 4.05566 8.00005 5.00036 8 6.39941V6.51367H16V6.39941C15.9999 5.00036 15.0053 4.05566 14 4.05566H10Z" fill="black"/>
</svg>
